<svg width="474" height="167" viewBox="0 0 474 167" fill="none" xmlns="http://www.w3.org/2000/svg">
<g clip-path="url(#clip0_453_59)">
<rect width="474" height="167" fill="#F2EDE0"/>
<rect x="464" width="10" height="167" fill="#B1A085"/>
<path d="M0 0H474L464 10H0V0Z" fill="white"/>
<rect y="157" width="474" height="10" fill="#B1A085"/>
<path d="M0 0H10V157L0 167V0Z" fill="white"/>
<rect x="10" y="10" width="147" height="147" fill="#EEE0CD"/>
<path d="M186.22 89.32C186.22 86 186.9 83.06 188.26 80.5C189.66 77.94 191.54 75.96 193.9 74.56C196.3 73.12 198.96 72.4 201.88 72.4C204.04 72.4 206.16 72.88 208.24 73.84C210.36 74.76 212.04 76 213.28 77.56V61.6H220.18V106H213.28V101.02C212.16 102.62 210.6 103.94 208.6 104.98C206.64 106.02 204.38 106.54 201.82 106.54C198.94 106.54 196.3 105.82 193.9 104.38C191.54 102.9 189.66 100.86 188.26 98.26C186.9 95.62 186.22 92.64 186.22 89.32ZM213.28 89.44C213.28 87.16 212.8 85.18 211.84 83.5C210.92 81.82 209.7 80.54 208.18 79.66C206.66 78.78 205.02 78.34 203.26 78.34C201.5 78.34 199.86 78.78 198.34 79.66C196.82 80.5 195.58 81.76 194.62 83.44C193.7 85.08 193.24 87.04 193.24 89.32C193.24 91.6 193.7 93.6 194.62 95.32C195.58 97.04 196.82 98.36 198.34 99.28C199.9 100.16 201.54 100.6 203.26 100.6C205.02 100.6 206.66 100.16 208.18 99.28C209.7 98.4 210.92 97.12 211.84 95.44C212.8 93.72 213.28 91.72 213.28 89.44ZM225.684 89.32C225.684 86 226.364 83.06 227.724 80.5C229.124 77.94 231.004 75.96 233.364 74.56C235.764 73.12 238.404 72.4 241.284 72.4C243.884 72.4 246.144 72.92 248.064 73.96C250.024 74.96 251.584 76.22 252.744 77.74V72.94H259.644V106H252.744V101.08C251.584 102.64 250.004 103.94 248.004 104.98C246.004 106.02 243.724 106.54 241.164 106.54C238.324 106.54 235.724 105.82 233.364 104.38C231.004 102.9 229.124 100.86 227.724 98.26C226.364 95.62 225.684 92.64 225.684 89.32ZM252.744 89.44C252.744 87.16 252.264 85.18 251.304 83.5C250.384 81.82 249.164 80.54 247.644 79.66C246.124 78.78 244.484 78.34 242.724 78.34C240.964 78.34 239.324 78.78 237.804 79.66C236.284 80.5 235.044 81.76 234.084 83.44C233.164 85.08 232.704 87.04 232.704 89.32C232.704 91.6 233.164 93.6 234.084 95.32C235.044 97.04 236.284 98.36 237.804 99.28C239.364 100.16 241.004 100.6 242.724 100.6C244.484 100.6 246.124 100.16 247.644 99.28C249.164 98.4 250.384 97.12 251.304 95.44C252.264 93.72 252.744 91.72 252.744 89.44ZM275.408 78.52V96.82C275.408 98.06 275.688 98.96 276.248 99.52C276.848 100.04 277.848 100.3 279.248 100.3H283.448V106H278.048C274.968 106 272.608 105.28 270.968 103.84C269.328 102.4 268.508 100.06 268.508 96.82V78.52H264.608V72.94H268.508V64.72H275.408V72.94H283.448V78.52H275.408ZM286.272 89.32C286.272 86 286.952 83.06 288.312 80.5C289.712 77.94 291.592 75.96 293.952 74.56C296.352 73.12 298.992 72.4 301.872 72.4C304.472 72.4 306.732 72.92 308.652 73.96C310.612 74.96 312.172 76.22 313.332 77.74V72.94H320.232V106H313.332V101.08C312.172 102.64 310.592 103.94 308.592 104.98C306.592 106.02 304.312 106.54 301.752 106.54C298.912 106.54 296.312 105.82 293.952 104.38C291.592 102.9 289.712 100.86 288.312 98.26C286.952 95.62 286.272 92.64 286.272 89.32ZM313.332 89.44C313.332 87.16 312.852 85.18 311.892 83.5C310.972 81.82 309.752 80.54 308.232 79.66C306.712 78.78 305.072 78.34 303.312 78.34C301.552 78.34 299.912 78.78 298.392 79.66C296.872 80.5 295.632 81.76 294.672 83.44C293.752 85.08 293.292 87.04 293.292 89.32C293.292 91.6 293.752 93.6 294.672 95.32C295.632 97.04 296.872 98.36 298.392 99.28C299.952 100.16 301.592 100.6 303.312 100.6C305.072 100.6 306.712 100.16 308.232 99.28C309.752 98.4 310.972 97.12 311.892 95.44C312.852 93.72 313.332 91.72 313.332 89.44ZM341.336 72.4C343.896 72.4 346.156 72.92 348.116 73.96C350.116 74.96 351.676 76.22 352.796 77.74V72.94H359.696V106.54C359.696 109.58 359.056 112.28 357.776 114.64C356.496 117.04 354.636 118.92 352.196 120.28C349.796 121.64 346.916 122.32 343.556 122.32C339.076 122.32 335.356 121.26 332.396 119.14C329.436 117.06 327.756 114.22 327.356 110.62H334.136C334.656 112.34 335.756 113.72 337.436 114.76C339.156 115.84 341.196 116.38 343.556 116.38C346.316 116.38 348.536 115.54 350.216 113.86C351.936 112.18 352.796 109.74 352.796 106.54V101.02C351.636 102.58 350.056 103.9 348.056 104.98C346.096 106.02 343.856 106.54 341.336 106.54C338.456 106.54 335.816 105.82 333.416 104.38C331.056 102.9 329.176 100.86 327.776 98.26C326.416 95.62 325.736 92.64 325.736 89.32C325.736 86 326.416 83.06 327.776 80.5C329.176 77.94 331.056 75.96 333.416 74.56C335.816 73.12 338.456 72.4 341.336 72.4ZM352.796 89.44C352.796 87.16 352.316 85.18 351.356 83.5C350.436 81.82 349.216 80.54 347.696 79.66C346.176 78.78 344.536 78.34 342.776 78.34C341.016 78.34 339.376 78.78 337.856 79.66C336.336 80.5 335.096 81.76 334.136 83.44C333.216 85.08 332.756 87.04 332.756 89.32C332.756 91.6 333.216 93.6 334.136 95.32C335.096 97.04 336.336 98.36 337.856 99.28C339.416 100.16 341.056 100.6 342.776 100.6C344.536 100.6 346.176 100.16 347.696 99.28C349.216 98.4 350.436 97.12 351.356 95.44C352.316 93.72 352.796 91.72 352.796 89.44ZM397.42 72.94V106H390.58V102.1C389.5 103.46 388.08 104.54 386.32 105.34C384.6 106.1 382.76 106.48 380.8 106.48C378.2 106.48 375.86 105.94 373.78 104.86C371.74 103.78 370.12 102.18 368.92 100.06C367.76 97.94 367.18 95.38 367.18 92.38V72.94H373.96V91.36C373.96 94.32 374.7 96.6 376.18 98.2C377.66 99.76 379.68 100.54 382.24 100.54C384.8 100.54 386.82 99.76 388.3 98.2C389.82 96.6 390.58 94.32 390.58 91.36V72.94H397.42ZM412.085 77.74C413.085 76.06 414.405 74.76 416.045 73.84C417.725 72.88 419.705 72.4 421.985 72.4V79.48H420.245C417.565 79.48 415.525 80.16 414.125 81.52C412.765 82.88 412.085 85.24 412.085 88.6V106H405.245V72.94H412.085V77.74ZM430.553 68.56C429.313 68.56 428.273 68.14 427.433 67.3C426.593 66.46 426.173 65.42 426.173 64.18C426.173 62.94 426.593 61.9 427.433 61.06C428.273 60.22 429.313 59.8 430.553 59.8C431.753 59.8 432.773 60.22 433.613 61.06C434.453 61.9 434.873 62.94 434.873 64.18C434.873 65.42 434.453 66.46 433.613 67.3C432.773 68.14 431.753 68.56 430.553 68.56ZM433.913 72.94V106H427.073V72.94H433.913Z" fill="#3E3E3E"/>
<path d="M50.8164 98.0208C50.8164 98.0208 70.006 92.7104 76.1703 84.0789C83.5 73.8158 83.6973 58.2637 83.6973 58.2637M86.0742 58.2985C119.351 63.6543 116.182 98.0208 116.182 98.0208C116.182 98.0208 109.025 130.936 90.4319 137.152C88.3346 137.853 86.0918 138.215 83.6973 138.151C81.0041 138.079 78.4977 137.502 76.1703 136.535C58.0849 129.027 50.8164 98.0208 50.8164 98.0208C50.8164 98.0208 47.6471 64.8123 81.3208 58.2985M81.3208 58.2985C82.096 58.2754 82.8881 58.2637 83.6973 58.2637M83.6973 58.2637C84.5065 58.2637 85.2653 58.2748 86.0742 58.2985C94.2146 58.7066 101.007 53.365 102.317 45.526C103.933 35.8449 102.5 30.002 83.6973 30C64.8945 29.998 64.3164 36.0533 65.8702 45.526C67.119 53.1393 73.4079 58.3381 81.3208 58.2985M83.6973 58.2637C83.6973 58.2637 83.4072 73.8158 90.9489 84.0789C95.691 90.5322 116.182 98.0208 116.182 98.0208M61.9087 110.051C61.9087 110.051 69.0395 101.945 76.1703 110.051M90.9489 110.051C90.9489 110.051 98.0797 101.945 105.21 110.051M78.9961 126.198C78.9961 126.198 80.1319 127.729 83.6973 127.729C87.2627 127.729 88.5038 126.198 88.5038 126.198" stroke="#3E3E3E" stroke-width="5" stroke-linecap="round"/>
<path d="M102.448 97.4341C107.562 97.4341 111.658 97.8651 114.435 99.2739C115.755 99.944 116.723 100.811 117.382 101.943C118.049 103.088 118.5 104.677 118.5 106.937C118.5 115.961 111.284 123.223 102.448 123.223C93.6114 123.223 86.3949 115.962 86.3948 106.937C86.3948 104.677 86.8458 103.088 87.5129 101.943C88.1722 100.811 89.1397 99.944 90.4602 99.2739C93.2366 97.8651 97.3327 97.4341 102.448 97.4341Z" fill="#F2EDE0" fill-opacity="0.65" stroke="#3E3E3E" stroke-width="5"/>
<path d="M64.5527 97.4341C69.6676 97.4341 73.7637 97.8651 76.54 99.2739C77.8606 99.944 78.8281 100.811 79.4873 101.943C80.1544 103.088 80.6055 104.677 80.6055 106.937C80.6053 115.961 73.3888 123.223 64.5527 123.223C55.7167 123.223 48.5001 115.962 48.5 106.937C48.5 104.677 48.951 103.088 49.6182 101.943C50.2774 100.811 51.2449 99.944 52.5654 99.2739C55.3418 97.8651 59.438 97.4341 64.5527 97.4341Z" fill="#F2EDE0" fill-opacity="0.65" stroke="#3E3E3E" stroke-width="5"/>
</g>
<defs>
<clipPath id="clip0_453_59">
<rect width="474" height="167" fill="white"/>
</clipPath>
</defs>
</svg>
